<svg width="242" height="16" viewBox="0 0 242 16" fill="none" xmlns="http://www.w3.org/2000/svg">
<path d="M0.918918 12V0.363636H2.32801V5.54545H8.53255V0.363636H9.94165V12H8.53255V6.79545H2.32801V12H0.918918ZM21.9899 0.363636V12H20.6263L14.2854 2.86364H14.1718V12H12.7627V0.363636H14.1263L20.4899 9.52273H20.6036V0.363636H21.9899ZM32.7641 4C32.6391 3.61742 32.4743 3.27462 32.2698 2.97159C32.069 2.66477 31.8285 2.40341 31.5482 2.1875C31.2717 1.97159 30.9573 1.80682 30.605 1.69318C30.2527 1.57955 29.8664 1.52273 29.4459 1.52273C28.7565 1.52273 28.1296 1.70076 27.5652 2.05682C27.0008 2.41288 26.552 2.9375 26.2186 3.63068C25.8853 4.32386 25.7186 5.17424 25.7186 6.18182C25.7186 7.18939 25.8872 8.03977 26.2243 8.73295C26.5614 9.42614 27.0179 9.95076 27.5936 10.3068C28.1694 10.6629 28.8171 10.8409 29.5368 10.8409C30.2035 10.8409 30.7906 10.6989 31.2982 10.4148C31.8095 10.1269 32.2073 9.72159 32.4914 9.19886C32.7792 8.67235 32.9232 8.05303 32.9232 7.34091L33.355 7.43182H29.855V6.18182H34.2868V7.43182C34.2868 8.39015 34.0823 9.22348 33.6732 9.93182C33.2679 10.6402 32.7073 11.1894 31.9914 11.5795C31.2792 11.9659 30.4611 12.1591 29.5368 12.1591C28.5065 12.1591 27.6012 11.9167 26.8209 11.4318C26.0444 10.947 25.4383 10.2576 25.0027 9.36364C24.5709 8.4697 24.355 7.40909 24.355 6.18182C24.355 5.26136 24.4781 4.43371 24.7243 3.69886C24.9743 2.96023 25.3266 2.33144 25.7811 1.8125C26.2357 1.29356 26.7736 0.895833 27.3948 0.619318C28.016 0.342803 28.6997 0.204545 29.4459 0.204545C30.0595 0.204545 30.6315 0.297348 31.1618 0.482954C31.6959 0.664772 32.1713 0.924242 32.588 1.26136C33.0084 1.5947 33.3588 1.99432 33.6391 2.46023C33.9194 2.92235 34.1126 3.43561 34.2186 4H32.7641ZM42.6093 0.363636V12H41.2002V0.363636H42.6093ZM46.5936 6.75V12H45.2527V3.27273H46.5482V4.63636H46.6618C46.8664 4.19318 47.177 3.83712 47.5936 3.56818C48.0103 3.29545 48.5482 3.15909 49.2073 3.15909C49.7982 3.15909 50.3152 3.2803 50.7584 3.52273C51.2016 3.76136 51.5463 4.125 51.7925 4.61364C52.0387 5.09848 52.1618 5.71212 52.1618 6.45455V12H50.8209V6.54545C50.8209 5.85985 50.6429 5.32576 50.2868 4.94318C49.9308 4.55682 49.4421 4.36364 48.8209 4.36364C48.3929 4.36364 48.0103 4.45644 47.6732 4.64205C47.3398 4.82765 47.0766 5.09848 46.8834 5.45455C46.6902 5.81061 46.5936 6.24242 46.5936 6.75ZM58.4076 3.27273V4.40909H53.8848V3.27273H58.4076ZM55.203 1.18182H56.5439V9.5C56.5439 9.87879 56.5988 10.1629 56.7087 10.3523C56.8223 10.5379 56.9663 10.6629 57.1405 10.7273C57.3185 10.7879 57.506 10.8182 57.703 10.8182C57.8507 10.8182 57.9719 10.8106 58.0666 10.7955C58.1613 10.7765 58.2371 10.7614 58.2939 10.75L58.5666 11.9545C58.4757 11.9886 58.3488 12.0227 58.186 12.0568C58.0231 12.0947 57.8166 12.1136 57.5666 12.1136C57.1879 12.1136 56.8166 12.0322 56.453 11.8693C56.0932 11.7064 55.7939 11.4583 55.5553 11.125C55.3204 10.7917 55.203 10.3712 55.203 9.86364V1.18182ZM63.9899 12.1818C63.149 12.1818 62.4237 11.9962 61.8138 11.625C61.2077 11.25 60.7399 10.7273 60.4104 10.0568C60.0846 9.38258 59.9218 8.59848 59.9218 7.70455C59.9218 6.81061 60.0846 6.02273 60.4104 5.34091C60.7399 4.6553 61.1983 4.12121 61.7854 3.73864C62.3763 3.35227 63.0657 3.15909 63.8536 3.15909C64.3081 3.15909 64.757 3.23485 65.2002 3.38636C65.6433 3.53788 66.0468 3.78409 66.4104 4.125C66.774 4.46212 67.0638 4.90909 67.2797 5.46591C67.4956 6.02273 67.6036 6.70833 67.6036 7.52273V8.09091H60.8763V6.93182H66.2399C66.2399 6.43939 66.1415 6 65.9445 5.61364C65.7513 5.22727 65.4748 4.92235 65.1149 4.69886C64.7589 4.47538 64.3384 4.36364 63.8536 4.36364C63.3195 4.36364 62.8574 4.49621 62.4672 4.76136C62.0808 5.02273 61.7835 5.36364 61.5752 5.78409C61.3668 6.20455 61.2627 6.6553 61.2627 7.13636V7.90909C61.2627 8.56818 61.3763 9.12689 61.6036 9.58523C61.8346 10.0398 62.1547 10.3864 62.5638 10.625C62.9729 10.8598 63.4483 10.9773 63.9899 10.9773C64.3422 10.9773 64.6604 10.928 64.9445 10.8295C65.2324 10.7273 65.4805 10.5758 65.6888 10.375C65.8971 10.1705 66.0581 9.91667 66.1718 9.61364L67.4672 9.97727C67.3308 10.4167 67.1017 10.803 66.7797 11.1364C66.4577 11.4659 66.06 11.7235 65.5865 11.9091C65.113 12.0909 64.5808 12.1818 63.9899 12.1818ZM69.6433 12V3.27273H70.9388V4.59091H71.0297C71.1888 4.15909 71.4767 3.80871 71.8933 3.53977C72.31 3.27083 72.7797 3.13636 73.3024 3.13636C73.4009 3.13636 73.524 3.13826 73.6718 3.14205C73.8195 3.14583 73.9312 3.15152 74.007 3.15909V4.52273C73.9615 4.51136 73.8574 4.49432 73.6945 4.47159C73.5354 4.44508 73.3668 4.43182 73.1888 4.43182C72.7646 4.43182 72.3858 4.52083 72.0524 4.69886C71.7229 4.87311 71.4615 5.11553 71.2683 5.42614C71.079 5.73295 70.9843 6.08333 70.9843 6.47727V12H69.6433ZM76.9374 6.75V12H75.5965V3.27273H76.8919V4.63636H77.0056C77.2101 4.19318 77.5207 3.83712 77.9374 3.56818C78.3541 3.29545 78.8919 3.15909 79.551 3.15909C80.1419 3.15909 80.659 3.2803 81.1022 3.52273C81.5453 3.76136 81.89 4.125 82.1362 4.61364C82.3825 5.09848 82.5056 5.71212 82.5056 6.45455V12H81.1647V6.54545C81.1647 5.85985 80.9866 5.32576 80.6306 4.94318C80.2745 4.55682 79.7859 4.36364 79.1647 4.36364C78.7366 4.36364 78.3541 4.45644 78.0169 4.64205C77.6836 4.82765 77.4203 5.09848 77.2272 5.45455C77.034 5.81061 76.9374 6.24242 76.9374 6.75ZM91.1377 5.22727L89.9331 5.56818C89.8574 5.36742 89.7456 5.17235 89.5979 4.98295C89.454 4.78977 89.257 4.63068 89.007 4.50568C88.757 4.38068 88.4369 4.31818 88.0468 4.31818C87.5127 4.31818 87.0676 4.44129 86.7115 4.6875C86.3593 4.92992 86.1831 5.23864 86.1831 5.61364C86.1831 5.94697 86.3043 6.21023 86.5468 6.40341C86.7892 6.59659 87.168 6.75758 87.6831 6.88636L88.9786 7.20455C89.7589 7.39394 90.3403 7.68371 90.7229 8.07386C91.1055 8.46023 91.2968 8.95833 91.2968 9.56818C91.2968 10.0682 91.1528 10.5152 90.8649 10.9091C90.5808 11.303 90.1831 11.6136 89.6718 11.8409C89.1604 12.0682 88.5657 12.1818 87.8877 12.1818C86.9975 12.1818 86.2608 11.9886 85.6774 11.6023C85.0941 11.2159 84.7248 10.6515 84.5695 9.90909L85.8422 9.59091C85.9634 10.0606 86.1926 10.4129 86.5297 10.6477C86.8706 10.8826 87.3157 11 87.8649 11C88.4899 11 88.9862 10.8674 89.3536 10.6023C89.7248 10.3333 89.9104 10.0114 89.9104 9.63636C89.9104 9.33333 89.8043 9.07955 89.5922 8.875C89.3801 8.66667 89.0543 8.51136 88.6149 8.40909L87.1604 8.06818C86.3612 7.87879 85.774 7.58523 85.399 7.1875C85.0278 6.78598 84.8422 6.28409 84.8422 5.68182C84.8422 5.18939 84.9805 4.75379 85.257 4.375C85.5373 3.99621 85.918 3.69886 86.399 3.48295C86.8839 3.26705 87.4331 3.15909 88.0468 3.15909C88.9104 3.15909 89.5884 3.34848 90.0808 3.72727C90.5771 4.10606 90.9293 4.60606 91.1377 5.22727ZM94.6561 6.75V12H93.3152V0.363636H94.6561V4.63636H94.7698C94.9743 4.18561 95.2811 3.82765 95.6902 3.5625C96.1031 3.29356 96.6523 3.15909 97.338 3.15909C97.9326 3.15909 98.4535 3.27841 98.9005 3.51705C99.3474 3.75189 99.694 4.11364 99.9402 4.60227C100.19 5.08712 100.315 5.70455 100.315 6.45455V12H98.9743V6.54545C98.9743 5.85227 98.7944 5.31629 98.4345 4.9375C98.0785 4.55492 97.5842 4.36364 96.9516 4.36364C96.5122 4.36364 96.1183 4.45644 95.7698 4.64205C95.4251 4.82765 95.1523 5.09848 94.9516 5.45455C94.7546 5.81061 94.6561 6.24242 94.6561 6.75ZM102.768 12V3.27273H104.109V12H102.768ZM103.45 1.81818C103.189 1.81818 102.963 1.72917 102.774 1.55114C102.588 1.37311 102.496 1.15909 102.496 0.909091C102.496 0.659091 102.588 0.445076 102.774 0.267045C102.963 0.089015 103.189 0 103.45 0C103.712 0 103.935 0.089015 104.121 0.267045C104.31 0.445076 104.405 0.659091 104.405 0.909091C104.405 1.15909 104.31 1.37311 104.121 1.55114C103.935 1.72917 103.712 1.81818 103.45 1.81818ZM106.565 15.2727V3.27273H107.861V4.65909H108.02C108.118 4.50758 108.255 4.31439 108.429 4.07955C108.607 3.84091 108.861 3.62879 109.19 3.44318C109.524 3.25379 109.974 3.15909 110.542 3.15909C111.277 3.15909 111.925 3.3428 112.486 3.71023C113.046 4.07765 113.484 4.59848 113.798 5.27273C114.113 5.94697 114.27 6.74242 114.27 7.65909C114.27 8.58333 114.113 9.38447 113.798 10.0625C113.484 10.7367 113.048 11.2595 112.491 11.6307C111.935 11.9981 111.292 12.1818 110.565 12.1818C110.005 12.1818 109.556 12.089 109.219 11.9034C108.882 11.714 108.622 11.5 108.44 11.2614C108.258 11.0189 108.118 10.8182 108.02 10.6591H107.906V15.2727H106.565ZM107.883 7.63636C107.883 8.29545 107.98 8.87689 108.173 9.38068C108.366 9.88068 108.649 10.2727 109.02 10.5568C109.391 10.8371 109.846 10.9773 110.383 10.9773C110.944 10.9773 111.412 10.8295 111.787 10.5341C112.166 10.2348 112.45 9.83333 112.639 9.32955C112.832 8.82197 112.929 8.25758 112.929 7.63636C112.929 7.02273 112.834 6.4697 112.645 5.97727C112.459 5.48106 112.177 5.08902 111.798 4.80114C111.423 4.50947 110.952 4.36364 110.383 4.36364C109.838 4.36364 109.38 4.50189 109.008 4.77841C108.637 5.05114 108.357 5.43371 108.167 5.92614C107.978 6.41477 107.883 6.98485 107.883 7.63636ZM124.497 0.204545C124.974 0.208333 125.452 0.299242 125.929 0.477272C126.406 0.655303 126.842 0.950757 127.236 1.36364C127.63 1.77273 127.946 2.33144 128.185 3.03977C128.423 3.74811 128.542 4.63636 128.542 5.70455C128.542 6.73864 128.444 7.6572 128.247 8.46023C128.054 9.25947 127.774 9.93371 127.406 10.483C127.042 11.0322 126.599 11.4489 126.077 11.733C125.558 12.017 124.971 12.1591 124.315 12.1591C123.664 12.1591 123.082 12.0303 122.571 11.7727C122.063 11.5114 121.647 11.1496 121.321 10.6875C120.999 10.2216 120.792 9.68182 120.702 9.06818H122.088C122.213 9.60227 122.461 10.0436 122.832 10.392C123.207 10.7367 123.702 10.9091 124.315 10.9091C125.213 10.9091 125.921 10.517 126.44 9.73295C126.963 8.94886 127.224 7.84091 127.224 6.40909H127.133C126.921 6.72727 126.669 7.00189 126.378 7.23295C126.086 7.46402 125.762 7.64205 125.406 7.76705C125.05 7.89205 124.671 7.95455 124.27 7.95455C123.603 7.95455 122.991 7.78977 122.435 7.46023C121.882 7.12689 121.438 6.67045 121.105 6.09091C120.775 5.50758 120.611 4.84091 120.611 4.09091C120.611 3.37879 120.77 2.72727 121.088 2.13636C121.41 1.54167 121.861 1.06818 122.44 0.715909C123.024 0.363636 123.709 0.193182 124.497 0.204545ZM124.497 1.45455C124.02 1.45455 123.59 1.57386 123.207 1.8125C122.828 2.04735 122.527 2.36553 122.304 2.76705C122.084 3.16477 121.974 3.60606 121.974 4.09091C121.974 4.57576 122.08 5.01705 122.292 5.41477C122.508 5.80871 122.802 6.12311 123.173 6.35795C123.548 6.58902 123.974 6.70455 124.452 6.70455C124.811 6.70455 125.147 6.63447 125.457 6.49432C125.768 6.35038 126.039 6.1553 126.27 5.90909C126.505 5.65909 126.688 5.37689 126.821 5.0625C126.953 4.74432 127.02 4.41288 127.02 4.06818C127.02 3.61364 126.91 3.1875 126.69 2.78977C126.474 2.39205 126.175 2.07008 125.792 1.82386C125.414 1.57765 124.982 1.45455 124.497 1.45455ZM135.481 12V0.363636H142.459V1.61364H136.891V5.54545H141.936V6.79545H136.891V12H135.481ZM144.596 12V3.27273H145.892V4.59091H145.983C146.142 4.15909 146.43 3.80871 146.846 3.53977C147.263 3.27083 147.733 3.13636 148.256 3.13636C148.354 3.13636 148.477 3.13826 148.625 3.14205C148.773 3.14583 148.884 3.15152 148.96 3.15909V4.52273C148.915 4.51136 148.81 4.49432 148.648 4.47159C148.489 4.44508 148.32 4.43182 148.142 4.43182C147.718 4.43182 147.339 4.52083 147.006 4.69886C146.676 4.87311 146.415 5.11553 146.221 5.42614C146.032 5.73295 145.937 6.08333 145.937 6.47727V12H144.596ZM153.829 12.1818C153.042 12.1818 152.35 11.9943 151.756 11.6193C151.165 11.2443 150.703 10.7197 150.369 10.0455C150.04 9.37121 149.875 8.58333 149.875 7.68182C149.875 6.77273 150.04 5.97917 150.369 5.30114C150.703 4.62311 151.165 4.09659 151.756 3.72159C152.35 3.34659 153.042 3.15909 153.829 3.15909C154.617 3.15909 155.307 3.34659 155.898 3.72159C156.492 4.09659 156.954 4.62311 157.284 5.30114C157.617 5.97917 157.784 6.77273 157.784 7.68182C157.784 8.58333 157.617 9.37121 157.284 10.0455C156.954 10.7197 156.492 11.2443 155.898 11.6193C155.307 11.9943 154.617 12.1818 153.829 12.1818ZM153.829 10.9773C154.428 10.9773 154.92 10.8239 155.307 10.517C155.693 10.2102 155.979 9.80682 156.165 9.30682C156.35 8.80682 156.443 8.26515 156.443 7.68182C156.443 7.09848 156.35 6.55492 156.165 6.05114C155.979 5.54735 155.693 5.14015 155.307 4.82955C154.92 4.51894 154.428 4.36364 153.829 4.36364C153.231 4.36364 152.739 4.51894 152.352 4.82955C151.966 5.14015 151.68 5.54735 151.494 6.05114C151.309 6.55492 151.216 7.09848 151.216 7.68182C151.216 8.26515 151.309 8.80682 151.494 9.30682C151.68 9.80682 151.966 10.2102 152.352 10.517C152.739 10.8239 153.231 10.9773 153.829 10.9773ZM161.172 6.75V12H159.831V3.27273H161.126V4.63636H161.24C161.444 4.19318 161.755 3.83712 162.172 3.56818C162.588 3.29545 163.126 3.15909 163.785 3.15909C164.376 3.15909 164.893 3.2803 165.337 3.52273C165.78 3.76136 166.124 4.125 166.371 4.61364C166.617 5.09848 166.74 5.71212 166.74 6.45455V12H165.399V6.54545C165.399 5.85985 165.221 5.32576 164.865 4.94318C164.509 4.55682 164.02 4.36364 163.399 4.36364C162.971 4.36364 162.588 4.45644 162.251 4.64205C161.918 4.82765 161.655 5.09848 161.462 5.45455C161.268 5.81061 161.172 6.24242 161.172 6.75ZM172.986 3.27273V4.40909H168.463V3.27273H172.986ZM169.781 1.18182H171.122V9.5C171.122 9.87879 171.177 10.1629 171.287 10.3523C171.4 10.5379 171.544 10.6629 171.719 10.7273C171.897 10.7879 172.084 10.8182 172.281 10.8182C172.429 10.8182 172.55 10.8106 172.645 10.7955C172.739 10.7765 172.815 10.7614 172.872 10.75L173.145 11.9545C173.054 11.9886 172.927 12.0227 172.764 12.0568C172.601 12.0947 172.395 12.1136 172.145 12.1136C171.766 12.1136 171.395 12.0322 171.031 11.8693C170.671 11.7064 170.372 11.4583 170.133 11.125C169.899 10.7917 169.781 10.3712 169.781 9.86364V1.18182ZM178.568 12.1818C177.727 12.1818 177.002 11.9962 176.392 11.625C175.786 11.25 175.318 10.7273 174.989 10.0568C174.663 9.38258 174.5 8.59848 174.5 7.70455C174.5 6.81061 174.663 6.02273 174.989 5.34091C175.318 4.6553 175.776 4.12121 176.364 3.73864C176.954 3.35227 177.644 3.15909 178.432 3.15909C178.886 3.15909 179.335 3.23485 179.778 3.38636C180.221 3.53788 180.625 3.78409 180.989 4.125C181.352 4.46212 181.642 4.90909 181.858 5.46591C182.074 6.02273 182.182 6.70833 182.182 7.52273V8.09091H175.454V6.93182H180.818C180.818 6.43939 180.72 6 180.523 5.61364C180.329 5.22727 180.053 4.92235 179.693 4.69886C179.337 4.47538 178.917 4.36364 178.432 4.36364C177.898 4.36364 177.435 4.49621 177.045 4.76136C176.659 5.02273 176.362 5.36364 176.153 5.78409C175.945 6.20455 175.841 6.6553 175.841 7.13636V7.90909C175.841 8.56818 175.954 9.12689 176.182 9.58523C176.413 10.0398 176.733 10.3864 177.142 10.625C177.551 10.8598 178.026 10.9773 178.568 10.9773C178.92 10.9773 179.239 10.928 179.523 10.8295C179.81 10.7273 180.059 10.5758 180.267 10.375C180.475 10.1705 180.636 9.91667 180.75 9.61364L182.045 9.97727C181.909 10.4167 181.68 10.803 181.358 11.1364C181.036 11.4659 180.638 11.7235 180.165 11.9091C179.691 12.0909 179.159 12.1818 178.568 12.1818ZM185.562 6.75V12H184.221V3.27273H185.517V4.63636H185.631C185.835 4.19318 186.146 3.83712 186.562 3.56818C186.979 3.29545 187.517 3.15909 188.176 3.15909C188.767 3.15909 189.284 3.2803 189.727 3.52273C190.17 3.76136 190.515 4.125 190.761 4.61364C191.007 5.09848 191.131 5.71212 191.131 6.45455V12H189.79V6.54545C189.79 5.85985 189.612 5.32576 189.256 4.94318C188.9 4.55682 188.411 4.36364 187.79 4.36364C187.362 4.36364 186.979 4.45644 186.642 4.64205C186.309 4.82765 186.045 5.09848 185.852 5.45455C185.659 5.81061 185.562 6.24242 185.562 6.75ZM196.876 12.1818C196.149 12.1818 195.507 11.9981 194.95 11.6307C194.393 11.2595 193.958 10.7367 193.643 10.0625C193.329 9.38447 193.172 8.58333 193.172 7.65909C193.172 6.74242 193.329 5.94697 193.643 5.27273C193.958 4.59848 194.395 4.07765 194.956 3.71023C195.516 3.3428 196.164 3.15909 196.899 3.15909C197.467 3.15909 197.916 3.25379 198.246 3.44318C198.579 3.62879 198.833 3.84091 199.007 4.07955C199.185 4.31439 199.323 4.50758 199.422 4.65909H199.535V0.363636H200.876V12H199.581V10.6591H199.422C199.323 10.8182 199.183 11.0189 199.001 11.2614C198.819 11.5 198.56 11.714 198.223 11.9034C197.886 12.089 197.437 12.1818 196.876 12.1818ZM197.058 10.9773C197.596 10.9773 198.051 10.8371 198.422 10.5568C198.793 10.2727 199.075 9.88068 199.268 9.38068C199.462 8.87689 199.558 8.29545 199.558 7.63636C199.558 6.98485 199.463 6.41477 199.274 5.92614C199.085 5.43371 198.804 5.05114 198.433 4.77841C198.062 4.50189 197.604 4.36364 197.058 4.36364C196.49 4.36364 196.016 4.50947 195.638 4.80114C195.263 5.08902 194.98 5.48106 194.791 5.97727C194.605 6.4697 194.513 7.02273 194.513 7.63636C194.513 8.25758 194.607 8.82197 194.797 9.32955C194.99 9.83333 195.274 10.2348 195.649 10.5341C196.028 10.8295 196.498 10.9773 197.058 10.9773ZM207.564 1.61364V0.363636H216.291V1.61364H212.632V12H211.223V1.61364H207.564ZM219.665 12.2045C219.112 12.2045 218.61 12.1004 218.159 11.892C217.708 11.6799 217.35 11.375 217.085 10.9773C216.82 10.5758 216.687 10.0909 216.687 9.52273C216.687 9.02273 216.786 8.61742 216.983 8.30682C217.18 7.99242 217.443 7.74621 217.773 7.56818C218.102 7.39015 218.466 7.25758 218.864 7.17045C219.265 7.07955 219.668 7.00758 220.074 6.95455C220.604 6.88636 221.034 6.83523 221.364 6.80114C221.697 6.76326 221.939 6.70076 222.091 6.61364C222.246 6.52652 222.324 6.375 222.324 6.15909V6.11364C222.324 5.55303 222.17 5.11742 221.864 4.80682C221.56 4.49621 221.1 4.34091 220.483 4.34091C219.843 4.34091 219.341 4.48106 218.977 4.76136C218.614 5.04167 218.358 5.34091 218.21 5.65909L216.937 5.20455C217.165 4.67424 217.468 4.26136 217.846 3.96591C218.229 3.66667 218.646 3.45833 219.096 3.34091C219.551 3.2197 219.998 3.15909 220.437 3.15909C220.718 3.15909 221.04 3.19318 221.403 3.26136C221.771 3.32576 222.125 3.46023 222.466 3.66477C222.81 3.86932 223.096 4.17803 223.324 4.59091C223.551 5.00379 223.665 5.55682 223.665 6.25V12H222.324V10.8182H222.256C222.165 11.0076 222.013 11.2102 221.801 11.4261C221.589 11.642 221.307 11.8258 220.954 11.9773C220.602 12.1288 220.172 12.2045 219.665 12.2045ZM219.869 11C220.4 11 220.846 10.8958 221.21 10.6875C221.578 10.4792 221.854 10.2102 222.04 9.88068C222.229 9.55114 222.324 9.20455 222.324 8.84091V7.61364C222.267 7.68182 222.142 7.74432 221.949 7.80114C221.759 7.85417 221.54 7.90151 221.29 7.94318C221.043 7.98106 220.803 8.01515 220.568 8.04545C220.337 8.07197 220.15 8.0947 220.006 8.11364C219.657 8.15909 219.331 8.23295 219.028 8.33523C218.729 8.43371 218.487 8.58333 218.301 8.78409C218.119 8.98106 218.028 9.25 218.028 9.59091C218.028 10.0568 218.201 10.4091 218.545 10.6477C218.894 10.8826 219.335 11 219.869 11ZM232.294 5.22727L231.089 5.56818C231.014 5.36742 230.902 5.17235 230.754 4.98295C230.61 4.78977 230.413 4.63068 230.163 4.50568C229.913 4.38068 229.593 4.31818 229.203 4.31818C228.669 4.31818 228.224 4.44129 227.868 4.6875C227.516 4.92992 227.339 5.23864 227.339 5.61364C227.339 5.94697 227.461 6.21023 227.703 6.40341C227.945 6.59659 228.324 6.75758 228.839 6.88636L230.135 7.20455C230.915 7.39394 231.497 7.68371 231.879 8.07386C232.262 8.46023 232.453 8.95833 232.453 9.56818C232.453 10.0682 232.309 10.5152 232.021 10.9091C231.737 11.303 231.339 11.6136 230.828 11.8409C230.317 12.0682 229.722 12.1818 229.044 12.1818C228.154 12.1818 227.417 11.9886 226.834 11.6023C226.25 11.2159 225.881 10.6515 225.726 9.90909L226.998 9.59091C227.12 10.0606 227.349 10.4129 227.686 10.6477C228.027 10.8826 228.472 11 229.021 11C229.646 11 230.142 10.8674 230.51 10.6023C230.881 10.3333 231.067 10.0114 231.067 9.63636C231.067 9.33333 230.961 9.07955 230.748 8.875C230.536 8.66667 230.211 8.51136 229.771 8.40909L228.317 8.06818C227.517 7.87879 226.93 7.58523 226.555 7.1875C226.184 6.78598 225.998 6.28409 225.998 5.68182C225.998 5.18939 226.137 4.75379 226.413 4.375C226.694 3.99621 227.074 3.69886 227.555 3.48295C228.04 3.26705 228.589 3.15909 229.203 3.15909C230.067 3.15909 230.745 3.34848 231.237 3.72727C231.733 4.10606 232.086 4.60606 232.294 5.22727ZM235.721 8.81818L235.699 7.15909H235.971L239.79 3.27273H241.449L237.381 7.38636H237.267L235.721 8.81818ZM234.471 12V0.363636H235.812V12H234.471ZM240.017 12L236.608 7.68182L237.562 6.75L241.721 12H240.017Z" fill="#667085"/>
</svg>
